<?xml version="1.0" standalone="no"?>
<!DOCTYPE svg PUBLIC "-//W3C//DTD SVG 20010904//EN"
 "http://www.w3.org/TR/2001/REC-SVG-20010904/DTD/svg10.dtd">
<svg version="1.0" xmlns="http://www.w3.org/2000/svg"
 width="96.000000pt" height="96.000000pt" viewBox="0 0 96.000000 96.000000"
 preserveAspectRatio="xMidYMid meet">
<metadata>
Created by potrace 1.11, written by Peter Selinger 2001-2013
</metadata>
<g transform="translate(0.000000,96.000000) scale(0.100000,-0.100000)"
fill="#000000" stroke="none">
<path d="M461 879 c-36 -22 -39 -40 -12 -77 11 -16 20 -49 22 -80 l4 -52 -76
0 c-82 0 -89 -4 -89 -55 0 -15 -7 -26 -20 -30 -35 -11 -108 -102 -114 -143
-17 -102 57 -230 150 -261 35 -11 39 -16 41 -48 1 -20 7 -41 13 -47 15 -15
301 -8 318 9 3 3 7 23 8 44 1 31 9 46 37 71 111 97 117 296 10 363 -22 14 -40
36 -47 57 l-11 35 -77 3 c-52 2 -78 7 -79 15 0 7 -2 31 -5 53 -4 36 -1 43 21
58 27 18 33 52 13 79 -19 26 -70 28 -107 6z"/>
</g>
</svg>
